<?xml version="1.0" encoding="UTF-8" standalone="no"?>
<!-- Created with Inkscape (http://www.inkscape.org/) -->

<svg
   xmlns:dc="http://purl.org/dc/elements/1.1/"
   xmlns:cc="http://creativecommons.org/ns#"
   xmlns:rdf="http://www.w3.org/1999/02/22-rdf-syntax-ns#"
   xmlns:svg="http://www.w3.org/2000/svg"
   xmlns="http://www.w3.org/2000/svg"
   xmlns:xlink="http://www.w3.org/1999/xlink"
   xmlns:sodipodi="http://sodipodi.sourceforge.net/DTD/sodipodi-0.dtd"
   xmlns:inkscape="http://www.inkscape.org/namespaces/inkscape"
   width="210mm"
   height="297mm"
   viewBox="0 0 210 297"
   version="1.1"
   id="svg1900"
   inkscape:version="0.92.3 (unknown)"
   sodipodi:docname="drawing-1.svg">
  <defs
     id="defs1894">
    <linearGradient
       inkscape:collect="always"
       id="linearGradient2469">
      <stop
         style="stop-color:#b97972;stop-opacity:1;"
         offset="0"
         id="stop2465" />
      <stop
         style="stop-color:#6d5edc;stop-opacity:0"
         offset="1"
         id="stop2467" />
    </linearGradient>
    <linearGradient
       inkscape:collect="always"
       xlink:href="#linearGradient2469"
       id="linearGradient2471"
       x1="-338.66666"
       y1="64.166664"
       x2="-530.35352"
       y2="28.342079"
       gradientUnits="userSpaceOnUse"
       gradientTransform="translate(210.04893,-71.702073)" />
    <linearGradient
       inkscape:collect="always"
       xlink:href="#linearGradient2469"
       id="linearGradient2475"
       gradientUnits="userSpaceOnUse"
       gradientTransform="translate(82.829687,-118.38967)"
       x1="-338.66666"
       y1="64.166664"
       x2="-530.35352"
       y2="28.342079" />
  </defs>
  <sodipodi:namedview
     id="base"
     pagecolor="#ffffff"
     bordercolor="#666666"
     borderopacity="1.0"
     inkscape:pageopacity="0.0"
     inkscape:pageshadow="2"
     inkscape:zoom="1"
     inkscape:cx="-1145.6922"
     inkscape:cy="1202.8571"
     inkscape:document-units="px"
     inkscape:current-layer="layer1"
     showgrid="true"
     inkscape:snap-bbox="true"
     inkscape:object-paths="true"
     showborder="false"
     inkscape:snap-smooth-nodes="true"
     inkscape:window-width="1920"
     inkscape:window-height="1053"
     inkscape:window-x="0"
     inkscape:window-y="27"
     inkscape:window-maximized="1">
    <inkscape:grid
       type="xygrid"
       id="grid2445" />
  </sodipodi:namedview>
  <metadata
     id="metadata1897">
    <rdf:RDF>
      <cc:Work
         rdf:about="">
        <dc:format>image/svg+xml</dc:format>
        <dc:type
           rdf:resource="http://purl.org/dc/dcmitype/StillImage" />
        <dc:title></dc:title>
      </cc:Work>
    </rdf:RDF>
  </metadata>
  <g
     inkscape:label="Layer 1"
     inkscape:groupmode="layer"
     id="layer1">
    <path
       style="fill:url(#linearGradient2475);fill-opacity:1;stroke:#000000;stroke-width:0.865;stroke-linecap:butt;stroke-linejoin:round;stroke-opacity:1;stroke-miterlimit:4;stroke-dasharray:none"
       d="m -306.16073,-47.714287 c -1.76389,0.75595 -3.4948,1.59403 -5.29166,2.26785 -0.44149,0.16556 -2.36495,0 -3.02382,0 h -6.80357 c -0.25752,0 -2.61467,-0.13637 -3.02379,0 -0.50398,0.25199 -1.00796,0.50397 -1.51191,0.75596 0,0.25198 0.17817,0.57777 0,0.75595 -0.17817,0.17818 -0.50398,0 -0.75597,0 -0.50395,0.50397 -1.11654,0.91889 -1.51188,1.51191 -0.13978,0.20966 0.20965,0.61617 0,0.75595 -0.75597,0.25198 -1.51191,0.50397 -2.26788,0.75595 0,0.25198 0.1782,0.577768 0,0.755948 -0.17817,0.17818 -0.57777,-0.17818 -0.75594,0 -0.17817,0.17818 0.13978,0.54629 0,0.75596 -0.39534,0.59301 -1.11657,0.91888 -1.51191,1.511901 -0.13978,0.20966 0.22537,0.64326 0,0.75595 -0.45077,0.22538 -1.06114,-0.22538 -1.51191,0 -0.22537,0.11269 0.17817,0.57777 0,0.75595 -0.39841,0.39842 -1.11347,0.35753 -1.51191,0.75596 -0.17817,0.17818 0.13978,0.546277 0,0.755947 -0.39534,0.59302 -1.11654,0.91888 -1.5119,1.5119 -0.0865,0.12986 0,4.271847 0,4.535717 0,0.25198 0.20968,0.61617 0,0.75595 -5.45312,1.81771 -1.33618,-0.35145 -2.26785,1.51191 -0.15936,0.31873 -0.64326,0.41787 -0.75594,0.75595 -0.23906,0.717157 0,1.511897 0,2.267857 v 3.779751 12.8511661 3.77976 0.75595 c 0,0.25199 0.11268,0.53057 0,0.75595 -0.15939,0.31874 -0.59659,0.43722 -0.75597,0.75595003 -0.11211,0.22421 0,3.80453997 0,4.53571997 0,0.25198 0.17819,0.57777 0,0.75595 -0.64244,0.64244 -1.62542,0.86947 -2.26785,1.51191 -0.15454,0.15454 0.14986,1.96812 0,2.26785 -1.72985,3.4596999 0.31332,-3.20782 -1.51191,2.2678599 -0.15936,0.47811 0.22537,1.06114 0,1.51191 -0.15936,0.31873 -0.64326,0.41788 -0.75594,0.75595 -0.25752,0.77255 0.19539,3.64949 0,3.77976 -0.66302,0.44201 -1.63039,0.27784 -2.26788,0.75595 -0.86862,0.65149 -0.75594,1.43404 -0.75594,2.26786 0,0.25198 0.17817,0.57777 0,0.75595 -2.78852,2.78852 -0.30504,-1.8103 -3.02382,2.26786 -0.13977,0.20966 0.1782,0.57777 0,0.75595 -0.92072,0.92074 -1.68894,0.35411 -2.26785,1.51191 -0.11268,0.22538 0,0.50396 0,0.75595 -0.50397,0.50397 -1.11656,0.91889 -1.5119,1.5119 -0.27956,0.41933 0.35636,1.15555 0,1.51191 -0.39841,0.39842 -1.00793,0.50397 -1.51191,0.75595 -0.50395,0.25198 -0.96528,0.6193 -1.51191,0.75595 -0.4889,0.12223 -1.15554,-0.35636 -1.51188,0 -0.35637,0.356359 0.22537,1.061139 0,1.511909 -0.2254,0.450763 -1.15557,-0.35636 -1.51191,0 -0.1782,0.17818 0.17817,0.577773 0,0.755953 -0.1782,0.17818 -0.51149,-0.0611 -0.75597,0 -0.77303,0.19326 -1.49479,0.562693 -2.26785,0.755953 -0.24445,0.0611 -0.51689,-0.0797 -0.75594,0 -0.53454,0.17818 -1.00796,0.50397 -1.51191,0.755953 -0.50398,0.25199 -1.1135,0.35753 -1.51191,0.75596 -0.17817,0.178183 0.17817,0.577773 0,0.755953 -0.17817,0.178183 -0.64325,-0.22538 -0.75596,0 -0.22538,0.450763 0.35636,1.155546 0,1.511916 -1.1861,1.186113 -2.59363,0.32578 -3.77976,1.511906 -0.17817,0.17818 0.1782,0.57777 0,0.755953 -0.35634,0.35636 -1.15554,-0.356363 -1.51191,0 -0.17817,0.17818 0.1782,0.57777 0,0.75595 -0.39841,0.398423 -1.11347,0.357533 -1.51188,0.755963 -0.1782,0.17817 0,0.50396 0,0.75595 -0.75597,0.50397 -1.48881,1.04446 -2.26788,1.5119 -0.96631,0.57979 -2.01586,1.00794 -3.02379,1.51191 -0.50398,0.25198 -1.19936,0.28713 -1.51191,0.75595 -0.27956,0.41933 0.27953,1.09258 0,1.5119 -0.6251,0.937653 -2.22697,0.715063 -3.02381,1.511916 -0.35637,0.35636 0.27955,1.09258 0,1.511903 -0.39535,0.593023 -1.11657,0.918893 -1.51191,1.511916 -0.13978,0.20966 0.17817,0.577773 0,0.755953 -0.39841,0.398423 -1.11348,0.357533 -1.51191,0.755953 -0.17817,0.17818 0,0.503973 0,0.755963 v 3.77976 c 0,0.25198 0.1782,0.57777 0,0.75595 -0.64244,0.64244 -1.62542,0.86947 -2.26785,1.5119 -0.35637,0.35636 0.35637,1.15555 0,1.51191 -0.17817,0.17818 -0.57777,-0.17818 -0.75594,0 -0.1782,0.17818 0.17817,0.57777 0,0.75595 -0.39844,0.39843 -1.19936,0.28713 -1.51191,0.75595 -0.27406,0.41109 0.18862,2.14212 0,2.26786 -0.66302,0.44201 -1.60486,0.31395 -2.26788,0.75595 -0.12684,0.0846 0,2.26171 0,3.02381 0,2.01588 0.25199,-0.25198 -0.75594,0.75596 -0.17817,0.17817 0,0.50396 0,0.75595 v 0.75595 0.75595 c 0,-0.50397 -0.50398,-1.5119 0,-1.5119 2.08164,0 0.21349,1.72539 0.75594,2.26786 0.1782,0.17817 0.50398,0 0.75597,0 0,0.25198 -0.17817,0.57777 0,0.75595 0.17817,0.17818 0.57777,-0.17818 0.75594,0 0.1782,0.17818 -0.17817,0.57777 0,0.75595 0.35637,0.35636 1.15554,-0.35636 1.51191,0 0.17817,0.17818 -0.17817,0.57777 0,0.75595 0.37798,0.37798 1.88989,-0.37797 2.26785,0 0.1782,0.17818 -0.17817,0.57778 0,0.75595 0.1782,0.17819 0.50398,0 0.75597,0 h 4.5357 c 0.25199,0 0.53059,0.1127 0.75596,0 0.31875,-0.15936 0.43723,-0.59658 0.75594,-0.75595 0.45078,-0.22538 1.06114,0.22538 1.51191,0 3.14611,-1.57304 -0.80814,0.0522 0.75597,-1.5119 0.20683,-0.20685 2.61371,0.20504 3.02379,0 0.31875,-0.15937 0.50398,-0.50397 0.75597,-0.75595 0.39529,-0.39531 2.92441,-2.72566 3.02379,-3.02381 0.12983,-0.38945 0,-4.49201 0,-5.29167 0,-0.50397 -0.15936,-1.0338 0,-1.51191 0.1782,-0.53453 0.50398,-1.00793 0.75597,-1.5119 0.25199,-0.50397 0.44339,-1.04308 0.75594,-1.51191 0.19767,-0.2965 0.50398,-0.50396 0.75597,-0.75595 0.25198,-0.25198 0.43719,-0.59658 0.75594,-0.75595 0.22537,-0.11269 0.64325,0.22538 0.75596,0 0.22538,-0.45076 -0.15938,-1.0338 0,-1.5119 0.0313,-0.0939 2.13815,-2.20302 2.26785,-2.26786 0.22538,-0.11269 0.53057,0.11269 0.75594,0 0.90716,-0.45357 1.36073,-1.814293 2.26788,-2.267866 0.22537,-0.11269 0.57777,0.17818 0.75594,0 0.17817,-0.17818 -0.17817,-0.577773 0,-0.755953 0.35637,-0.35636 1.06114,0.22538 1.51191,0 1.15779,-0.578903 0.59116,-1.347126 1.51191,-2.267869 0.39841,-0.39842 1.04307,-0.4434 1.51191,-0.75595 0.29649,-0.19767 0.43719,-0.596593 0.75594,-0.755953 0.44603,-0.22302 1.74789,0.17332 2.26785,0 1.373,-0.457663 1.40295,-0.646983 2.26787,-1.511913 0.25197,-0.25198 0.4372,-0.59658 0.75594,-0.75595 0.22538,-0.11269 0.50398,0 0.75595,0 0.75596,0 1.59173,0.33807 2.26787,0 0.50395,-0.25198 0.44339,-1.04308 0.75594,-1.5119 0.19767,-0.29651 0.50398,-0.50397 0.75597,-0.75596 0.25196,-0.25198 0.45942,-0.55828 0.75594,-0.75595 0.46882,-0.31255 1.11347,-0.35753 1.51191,-0.75595 0.39841,-0.39842 0.35753,-1.11349 0.75594,-1.511913 0.1782,-0.17818 0.53057,0.112693 0.75597,0 0.63746,-0.31873 0.83576,-1.286523 1.51191,-1.511903 0.4781,-0.15937 1.03378,0.15937 1.51188,0 0.33808,-0.11269 0.50398,-0.503973 0.75597,-0.755953 0.25199,-0.25199 0.55827,-0.459453 0.75594,-0.755953 0.31255,-0.468833 0.35753,-1.113493 0.75597,-1.511916 2.95026,-2.950289 0.40597,0.174983 2.26784,-0.755953 1.28083,-0.64041 1.54739,-2.699059 2.26785,-3.779779 0.19767,-0.296503 0.50398,-0.503959 0.75597,-0.755949 0.75594,-0.75595 1.51191,-1.5119 2.26785,-2.26785 0.50398,-0.50397 1.08426,-0.94173 1.51191,-1.51191 0.33806,-0.45076 0.44339,-1.04308 0.75594,-1.5119 0.19767,-0.29651 0.5583,-0.45945 0.75597,-0.75596 0.31255,-0.46882 0.50395,-1.00793 0.75594,-1.5119 0.25199,-0.50397 0.57777,-0.97737 0.75597,-1.5119 0.0797,-0.23906 -0.11272,-0.53058 0,-0.75596 0.40629,-0.81262 1.10558,-1.45523 1.51188,-2.26786 0.11271,-0.22538 0,-0.50396 0,-0.75595 V 16.54162 12.00591 -0.08932987 -6.1369499 c 0,-0.60857 -0.15814,-2.54933 0,-3.02381 0.1782,-0.53454 0.5778,-0.9773701 0.75597,-1.5119001 0.21587,-0.6476 -0.16674,-2.35689 0,-3.02381 0.13665,-0.54663 0.57777,-0.97736 0.75594,-1.5119 0.0797,-0.23904 -0.0797,-0.51689 0,-0.75594 0.17819,-0.53454 0.50398,-1.00794 0.75597,-1.51191 0.25198,-0.50396 0.44338,-1.043073 0.75594,-1.511893 0.19767,-0.296513 0.55827,-0.459453 0.75596,-0.755953 0.31253,-0.468811 0.35754,-1.113481 0.75594,-1.511901 0.39841,-0.39842 1.0431,-0.4434 1.51191,-0.75595 0.59301,-0.39535 1.00793,-1.00794 1.51191,-1.5119 0.75594,-0.75596 1.51191,-1.51191 2.26785,-2.267857 0.25199,-0.25199 0.43723,-0.59659 0.75594,-0.75595 0.45077,-0.22539 1.15557,0.35636 1.51191,0 0.39844,-0.39843 0.35753,-1.11349 0.75597,-1.51191 0.35634,-0.35636 1.03378,0.15937 1.51191,0 0.53453,-0.17818 0.97734,-0.57777 1.51188,-0.75595 0.47813,-0.15937 1.06116,0.22538 1.51191,0 0.63748,-0.31874 0.87445,-1.19317 1.51191,-1.511907 0.22537,-0.11269 0.53056,0.112687 0.75596,0 1.86825,-0.93413 -0.26096,-0.75595 1.51189,-0.75595 0.25198,0 0.57779,-0.17818 0.75596,0 0.37799,0.37798 -0.37798,1.889877 0,2.267857 0.17817,0.17818 0.57777,-0.17818 0.75594,0 0.1782,0.17818 -0.17817,0.57777 0,0.75595 0.1782,0.17818 0.57777,-0.17818 0.75597,0 0.17817,0.17818 -0.11268,0.53057 0,0.75595 0.31872,0.63748 1.19317,0.87443 1.51191,1.51191 0.0977,0.19545 0,3.999887 0,4.535707 0,0.25199 -0.11271,0.53057 0,0.75595 0.15936,0.31874 0.59658,0.43722 0.75594,0.755951 0.11491,0.22983 0,2.501796 0,3.023796 v 6.8035601 7.55952 c 0,0.522 0.11491,2.79397003 0,3.02381003 -0.15936,0.31874 -0.59658,0.43720997 -0.75594,0.75594997 -0.75597,1.51191 1.51188,0 0,2.26786 -0.31255,0.46882 -1.1135,0.35753 -1.51191,0.75595 -0.1782,0.17818 0.11269,0.53057 0,0.75596 -0.15938,0.31873 -0.59658,0.43721 -0.75597,0.75595 -0.1121,0.2242 0,3.80453 0,4.5357099 0,0.25199 0.13978,0.54629 0,0.75595 -0.39534,0.59302 -1.11654,0.91889 -1.5119,1.51191 -0.0868,0.13022 0,3.67186 0,3.77976 0,0.25198 0.20968,0.61618 0,0.75595 -0.663,0.44201 -1.60483,0.31395 -2.26785,0.75595 -0.24972,0.16648 0.30869,2.56078 0,3.02382 -0.31256,0.46882 -1.11348,0.35752 -1.51191,0.75595 -0.35634,0.35636 0.15938,1.0338 0,1.5119 -0.17817,0.53454 -0.57777,0.97737 -0.75594,1.51191 -0.14674,0.44017 0,4.01556 0,4.53571 v 9.071453 9.827392 c 0,0.40384 -0.10819,3.563422 0,3.779772 0.15935,0.31874 0.59658,0.437223 0.75594,0.755953 0.11268,0.22538 -0.0797,0.516903 0,0.755963 1.82523,5.47567 -0.21794,-1.191846 1.51191,2.26785 0.11268,0.22538 -0.11269,0.53057 0,0.75596 0.15938,0.31873 0.64325,0.41788 0.75596,0.75595 0.15936,0.4781 -0.27956,1.09258 0,1.5119 0.31253,0.46882 1.04307,0.44341 1.51189,0.75595 0.52908,0.35272 3.58984,3.49488 3.77978,3.77977 0.13975,0.20966 -0.11271,0.53057 0,0.75595 0.31872,0.63747 1.11654,0.91889 1.51188,1.5119 l 0.75597,1.51191 c 0,0.25198 -0.11269,0.53057 0,0.75595 0.57891,1.1578 1.34713,0.59117 2.26785,1.51191 0.17817,0.17817 -0.0797,0.51689 0,0.75595 0.18415,0.55244 0.81997,1.92189 1.51191,2.26786 0.22537,0.11269 0.50398,0 0.75594,0 0.50398,0 1.03381,-0.15937 1.51191,0 0.33808,0.11269 0.43722,0.59658 0.75596,0.75595 0.22538,0.11269 0.57778,-0.17818 0.75595,0 0.17817,0.17818 -0.17817,0.57777 0,0.75595 0.17817,0.17818 0.50397,0 0.75596,0 h 0.75594 6.04761 0.75597 c 0.25199,0 0.57777,-0.17818 0.75594,0 0.1782,0.17818 -0.17817,0.57777 0,0.75595 0.0934,0.0934 2.54976,0 3.02382,0 h 4.53572 c 0.75594,0 1.59171,-0.33807 2.26785,0 0.63746,0.31874 0.91887,1.11656 1.51191,1.51191 0.11263,0.0751 2.01959,0 2.26785,0 h 6.04761 1.51191 c 0.25199,0 0.51691,-0.0797 0.75596,0 0.53454,0.17818 0.97738,0.57777 1.51191,0.75595 0.47448,0.15816 2.41523,0 3.02379,0 h 7.55955 7.55951 c 0.64003,0 2.61739,0.13547 3.02382,0 0.33806,-0.11269 0.4372,-0.59658 0.75594,-0.75595 0.45077,-0.22538 1.15554,0.35636 1.51191,0 0.39841,-0.39842 0.35753,-1.11349 0.75594,-1.51191 0.39844,-0.39842 1.1135,-0.35753 1.51191,-0.75595 0.17817,-0.17818 0,-0.50397 0,-0.75595 0,-0.39531 0.0994,-2.82504 0,-3.02381 -0.15936,-0.31874 -0.59658,-0.43722 -0.75594,-0.75595 -0.20505,-0.4101 0.20682,-2.81697 0,-3.02381 -0.1782,-0.17818 -0.57777,0.17818 -0.75597,0 -0.17817,-0.17818 0.1782,-0.57778 0,-0.75596 -0.17817,-0.17818 -0.64326,0.22539 -0.75594,0 -1.33821,-2.6764 2.24885,-0.51663 -1.51191,-3.02381 -0.12843,-0.0856 -4.05172,0 -4.53573,0 H -254 c -1.30691,0 -1.77139,0.079 -3.02382,-0.75595 -0.29652,-0.19767 -0.43722,-0.59658 -0.75597,-0.75595 -0.22537,-0.11269 -0.57777,0.17818 -0.75594,0 -0.39841,-0.39842 -0.35753,-1.11348 -0.75594,-1.51191 -0.39843,-0.39842 -1.04309,-0.4434 -1.51191,-0.75595 -0.29651,-0.19767 -0.43722,-0.59658 -0.75596,-0.75595 -0.22538,-0.11269 -0.57777,0.17818 -0.75594,0 -0.17817,-0.17818 0.17817,-0.57777 0,-0.75595 -0.17817,-0.17818 -0.55439,0.15119 -0.75597,0 -1.7702,-1.32766 -2.4129,-3.07216 -4.5357,-3.77976 -0.4781,-0.15937 -1.15554,0.35636 -1.51191,0 -1.06825,-1.068253 -1.52765,-3.031692 -3.02382,-3.779785 -0.45074,-0.22538 -1.06113,0.22539 -1.5119,0 -0.22538,-0.11269 0.17819,-0.577773 0,-0.755953 -0.17818,-0.17818 -0.57778,0.17818 -0.75595,0 -0.17817,-0.17818 0.17817,-0.57777 0,-0.75595 -0.17817,-0.17818 -0.50397,0 -0.75594,0 -0.50398,-0.503973 -1.11657,-0.918893 -1.51191,-1.511916 -0.13977,-0.20966 0,-0.50396 0,-0.75595 -0.50397,-0.75595 -0.86947,-1.62542 -1.5119,-2.26785 -0.17817,-0.17818 -0.57777,0.17818 -0.75597,0 -0.17817,-0.17818 0.13978,-0.54629 0,-0.75596 -0.79068,-1.18603 -2.23311,-1.83777 -3.02379,-3.023813 -0.34891,-0.52335 0.3489,-1.744506 0,-2.267856 -0.39534,-0.593023 -1.11657,-0.918893 -1.51191,-1.511916 -0.17333,-0.25997 0.16571,-2.102136 0,-2.267866 -0.64244,-0.642433 -1.62542,-0.869473 -2.26785,-1.511906 -0.1782,-0.17818 0,-0.503973 0,-0.755953 V 30.904709 26.369 c 0,-0.50397 0.12221,-1.02298 0,-1.5119 -0.13666,-0.54664 -0.5778,-0.97737 -0.75597,-1.51191 -0.14216,-0.42651 0,-1.77111 0,-2.26785 v -0.75596 c 0,-0.25198 -0.25199,-0.75595 0,-0.75595 0.25199,0 0,1.00793 0,0.75595 v -1.5119 -1.51191 c 0,-0.25198 -0.0797,-0.5169 0,-0.75595 0.17817,-0.53454 0.57777,-0.97737 0.75597,-1.51191 0.0797,-0.23905 -0.11271,-0.53057 0,-0.75595 1.72985,-3.45969 -0.31332,3.20782 1.51188,-2.26785 0.0797,-0.23906 0,-0.50397 0,-0.75596 0,-0.68139 -0.15859,-3.3039599 0,-3.7797599 0.52917,-1.5875 1.73871,-2.94821 2.26788,-4.53571 0.23908,-0.71729 -0.19521,-2.24298997 0,-3.02380997 0.19325,-0.77306 0.56269,-1.49481003 0.75594,-2.26786003 0.0611,-0.24446 -0.0797,-0.5169 0,-0.75595 0.17817,-0.53454 0.57777,-0.97737 0.75597,-1.51191 0.0797,-0.23905 -0.11272,-0.53057 0,-0.75595 0.40629,-0.81262 1.17446,-1.4243 1.51188,-2.26786 0.37436,-0.93584 -0.24445,-2.04596 0,-3.0238001 0.27331,-1.09327 1.2909,-1.91878 1.51191,-3.02381 0,-4.29908 -0.33806,-0.49768 0.75596,-3.77975 0.23906,-0.71715 -0.18335,-1.534463 0,-2.267846 0.13666,-0.546621 0.47639,-1.022681 0.75595,-1.511901 0.72898,-1.27572 1.63615,-2.45318 2.26785,-3.77976 1.89203,-3.973227 3.68255,-7.999264 5.29166,-12.095231 1.16549,-2.966651 2.08645,-6.024999 3.02382,-9.071429 0.0741,-0.24084 -0.25199,-0.75595 0,-0.75595 0.25199,0 0.17817,0.93413 0,0.75595 -0.64244,-0.64243 -1.2246,-1.40593 -1.51191,-2.26785 -0.17817,-0.53454 1.25992,0.25198 1.51191,0.75595 0.11268,0.22538 0,0.50397 0,0.75595 0.25199,0.50397 0.41788,1.06114 0.75597,1.5119 0.42762,0.57018 1.11654,0.91889 1.51188,1.51191 0.13978,0.20966 -0.15118,0.55437 0,0.75595 0.75597,0.75596 1.51191,1.51191 2.26787,2.26786 0.25199,0 0.53057,-0.11269 0.75595,0 0.31874,0.15937 0.45944,0.558278 0.75596,0.755948 0.46882,0.31255 1.11348,0.35753 1.51188,0.75596 0.1782,0.17817 -0.0797,0.51689 0,0.75595 0.1782,0.534531 0.5778,0.977361 0.75597,1.511901 0.15936,0.47811 -0.22537,1.06114 0,1.51191 0.15936,0.318727 0.64326,0.417877 0.75594,0.755947 0.15939,0.4781 -0.22537,1.06114 0,1.5119 0.11269,0.22538 0.57777,-0.17818 0.75597,0 0.17817,0.17818 -0.11269,0.53058 0,0.75596 0.93411,1.86826 0.75594,-0.26094 0.75594,1.5119 v 25.7023411 c 0,0.28807 -0.0734,3.70639 0,3.77976 0.39844,0.39843 1.19936,0.28713 1.51191,0.75595003 1.51191,2.26785997 -0.75594,0.75596 0,2.26785997 0.15936,0.31874 0.59658,0.43722 0.75594,0.75595 0.11271,0.22539 -0.11268,0.53058 0,0.75596 0.15939,0.31873 0.43723,0.59658 0.75597,0.75595 0.22537,0.11269 0.64325,-0.22538 0.75594,0 0.2254,0.45076 -0.35634,1.15554 0,1.51191 0.35637,0.35635 1.03381,-0.15937 1.51191,0 0.33808,0.11268 0.43722,0.59658 0.75597,0.75595 0.45074,0.22538 1.06113,-0.22539 1.51188,0 0.31874,0.15937 0.41788,0.64326 0.75597,0.75595 3.4413,0 0.0432,-0.35636 2.26785,0.75595 0.36959,0.18479 1.9949,-0.20471 2.26784,0 0.85527,0.64145 1.41262,1.62641 2.26788,2.26786 0.20159,0.15119 0.51149,-0.0611 0.75594,0 0.77306,0.19326 1.49482,0.5626899 2.26785,0.7559499 0.48892,0.12223 1.06117,-0.22538 1.51191,0 0.31874,0.15937 0.43722,0.59658 0.75597,0.75595 0.22537,0.1127 0.50395,0 0.75594,0 0.75597,0 1.53448,-0.18334 2.26785,0 0.34573,0.0864 0.4504,0.57261 0.75597,0.75596 1.00794,0.50396 2.01587,1.00793 3.02382,1.5119 0.25197,0 0.51689,-0.0797 0.75594,0 0.53454,0.17818 0.95941,0.64545 1.51191,0.75595 1.00171,0.20034 2.64449,0 3.77976,0 h 7.55952 5.29167 1.5119 c 0.25199,0 0.53058,0.11269 0.75596,0 0.31873,-0.15937 0.50397,-0.50396 0.75595,-0.75595 0.50397,-0.50397 0.87443,-1.19317 1.51191,-1.5119 0.45076,-0.22538 1.03379,0.15936 1.5119,0 0.67614,-0.22538 0.87443,-1.19317 1.5119,-1.51191 0.80924,-0.40462 1.61327,0.65459 3.02381,-0.7559499 0.39843,-0.39842 0.44341,-1.04308 0.75596,-1.51191 0.19767,-0.29651 0.50396,-0.50397 0.75595,-0.75595 0.25198,-0.25198 0.41788,-0.64326 0.75595,-0.75595 0.47811,-0.15937 1.0338,0.15937 1.5119,0 0.33808,-0.11269 0.50397,-0.50397 0.75596,-0.75595 0.25198,-0.25199 0.55828,-0.45945 0.75595,-0.75595 0.31255,-0.46883 0.35753,-1.11349 0.75595,-1.51191 0.17818,-0.17818 0.5169,0.0797 0.75595,0 0.53454,-0.17818 1.04309,-0.4434 1.51191,-0.75595 0.59302,-0.39535 0.91889,-1.11656 1.51191,-1.51191 0.46882,-0.31254 1.06114,-0.41788 1.5119,-0.75594997 0.57017,-0.42763 1.00794,-1.00794 1.5119,-1.51191 0.75596,-0.75595003 1.51191,-1.51190003 2.26786,-2.26785003 0.48414,-0.48414 2.55219,-2.31638 3.02381,-3.02381 0.98134,-1.472 0.75595,-1.38732 0.75595,-3.02381 0,-0.25198 -0.0797,-0.5169 0,-0.75595 0.432,-1.2960101 1.62092,-2.7015301 2.26786,-3.7797601 0.28989,-0.48315 0.35753,-1.11348 0.75595,-1.5119 0.17818,-0.17817 0.53057,0.11269 0.75595,0 0.31874,-0.15936 0.41788,-0.64325 0.75596,-0.75594 0.003,-0.001 2.26713,7.9e-4 2.26786,0 0.39842,-0.39842 0.35752,-1.11348 0.75595,-1.51191 0.35636,-0.35636 1.0338,0.15937 1.5119,0 0.53454,-0.17818 0.97737,-0.57776 1.51191,-0.75594 0.71728,-0.239093 2.24299,0.19521 3.02381,0 0.77305,-0.193263 1.4948,-0.562693 2.26785,-0.755953 0.48892,-0.122233 1.00794,0 1.51191,0 h 3.77976 c 0.25198,0 0.5169,0.0797 0.75595,0 0.53454,-0.178183 0.97737,-0.577773 1.51191,-0.755953 0.72732,-0.242434 2.2328,0.19775 3.02381,0 0.77305,-0.193267 1.48648,-0.599671 2.26784,-0.755951 0.98836,-0.19767 2.01588,0 3.02381,0 h 4.53572 c 0.34044,0 2.03779,-0.11503 2.26785,0 0.31874,0.15937 0.41789,0.643254 0.75596,0.755951 0.4781,0.15936 1.0338,-0.159367 1.5119,0 0.33807,0.11269 0.50397,0.50396 0.75595,0.755953 0.25199,0.25198 0.59659,0.43721 0.75596,0.755953 0.1121,0.2242 0,3.80452 0,4.53569 v 10.5833301 c 0,0.47357 -0.0407,4.49504 0,4.53571 0.25198,0.25199 0.50396,-0.50396997 0.75595,-0.75594997 0.25198,-0.25198 0.59658,-0.43722 0.75595,-0.75595 0.11269,-0.22538 -0.17818,-0.57777 0,-0.75596 0.17818,-0.17817003 0.57777,0.17819 0.75595,0 0.39843,-0.39842003 0.44341,-1.04308003 0.75595,-1.51190003 0.45877,-0.68815 1.93285,-1.59783 2.26786,-2.26786 0.11269,-0.22538 -0.11269,-0.53057 0,-0.75595 0.15937,-0.31874 0.55828,-0.45944 0.75595,-0.75595 0.31255,-0.46882 0.44341,-1.04308 0.75596,-1.51191 0.5815,-0.87225 1.68635,-1.3956 2.26785,-2.26785 0.3988,-0.5981901 2.0454,-3.8683201 2.26786,-4.5357101 0.15816,-0.47447 0,-2.41523 0,-3.0238 0,-0.522 0.11492,-2.793957 0,-3.023797 -0.31874,-0.63747 -1.19317,-0.87443 -1.5119,-1.5119 -0.11269,-0.22538 0.0797,-0.5169 0,-0.75595 -0.17818,-0.53454 -0.57778,-0.97737 -0.75596,-1.51191 -0.0797,-0.23905 0.11269,-0.53057 0,-0.75595 -0.15936,-0.318737 -0.59658,-0.437207 -0.75595,-0.755947 -0.11269,-0.22539 0.11269,-0.53057 0,-0.75595 -0.15937,-0.31874 -0.59658,-0.43722 -0.75595,-0.75596 -0.11269,-0.22538 0.17818,-0.57777 0,-0.75595 -0.17818,-0.17818 -0.57777,0.17818 -0.75595,0 -0.17818,-0.17818 0.22538,-0.64326 0,-0.75595 -0.75205,-0.37603 -2.11832,0.29908 -2.26786,0 -1.3382,-2.676407 2.24886,-0.51663 -1.51191,-3.023807 -0.27775,-0.18517 -2.13392,0.26786 -2.26785,0 -0.22538,-0.45077 0.22538,-1.06114 0,-1.51191 -0.11269,-0.22538 -0.55437,0.15119 -0.75595,0 -0.85527,-0.64144 -1.51191,-1.5119 -2.26786,-2.267847 -0.75595,-0.75596 -1.35113,-1.71782 -2.26786,-2.26786 -0.68329,-0.40997 -1.58457,-0.34598 -2.26786,-0.755951 -0.61115,-0.36669 -0.91888,-1.11656 -1.5119,-1.51191 -0.20966,-0.13977 -0.53057,0.11269 -0.75595,0 -0.81263,-0.406311 -1.45524,-1.105588 -2.26786,-1.511898 -0.22538,-0.11269 -0.5169,0.0797 -0.75595,0 -0.53454,-0.17818 -0.96528,-0.6193 -1.51191,-0.75595 -0.48892,-0.12224 -1.06113,0.22538 -1.51189,0 -3.01221,-1.50611 -0.003,-1.51274 -3.02381,-2.26786 -0.57605,-0.14401 -4.50953,0 -5.29167,0 -1.16598,0 -3.65181,-0.17678 -4.53571,0 -0.55251,0.1105 -0.97737,0.57777 -1.51191,0.75595 -2.15317,0.71772 1.21566,-2.72757 -3.02381,1.51191 -0.35635,0.35636 0.35636,1.15554 0,1.5119 -0.39842,0.398418 -1.19935,0.28713 -1.5119,0.755948 -0.27406,0.41109 0.18862,2.142111 0,2.267861 -0.66302,0.44201 -1.60484,0.31394 -2.26786,0.75595 -0.41932,0.27955 0.27955,1.09258 0,1.51191 -0.39534,0.593007 -1.11656,0.918877 -1.5119,1.511897 -0.13978,0.20967 0.17818,0.57777 0,0.75595 -1.18612,1.18612 -2.59365,0.32579 -3.77977,1.51191 -0.18708,0.18709 0.18709,2.080767 0,2.267847 -0.39842,0.39843 -1.11348,0.35754 -1.5119,0.75596 -0.17818,0.17818 0.22538,0.64326 0,0.75595 -1.35757,0.67879 -1.86365,-0.98429 -3.02381,0.75595 -0.27955,0.41933 0.22538,1.06114 0,1.51191 -0.11269,0.22538 -0.51149,-0.0611 -0.75595,0 -0.77305,0.19326 -1.60485,0.31394 -2.26786,0.755947 -0.20966,0.13978 0.17818,0.57777 0,0.75595 -0.17818,0.17818 -0.5169,-0.0797 -0.75595,0 -0.53454,0.17818 -0.98875,0.54669 -1.5119,0.75596 -0.73986,0.29593 -1.58458,0.34597 -2.26786,0.75595 -3.50717,-0.64686 -0.86947,1.62542 -1.51191,2.26785 -0.17818,0.17818 -0.51149,-0.0611 -0.75595,0 -0.77305,0.19327 -1.52801,0.46002 -2.26786,0.755951 -3.2902,1.316083 -0.32452,-0.106907 -1.5119,2.267846 -0.11269,0.22538 -0.51149,-0.0611 -0.75595,0 -3.34291,0.83573 -1.17294,0.46918 -3.77977,1.51191 -0.4033,0.16132 -2.68945,0.50882 -3.0238,1.51189 -1.47655,4.42963 2.10158,-1.34563 -1.51191,2.26785 -0.17818,0.17818 0.22538,0.64326 0,0.75595 -0.67615,0.33808 -1.51191,0 -2.26786,0 h -0.75595 c -0.25198,0 -0.57777,-0.17818 -0.75595,0 -0.17818,0.17818 0.17818,0.57777 0,0.75596 -0.17818,0.17817 -0.51149,-0.0611 -0.75596,0 -0.77305,0.19326 -1.4948,0.56269 -2.26785,0.7559501 -0.64413,0.16103 -1.60137,0 -2.26786,0 h -6.04762 c -0.47405,0 -2.93043,0.0934 -3.0238,0 -0.35637,-0.3563601 0.35634,-1.1555501 0,-1.5119101 -0.1782,-0.17818 -0.54628,0.13978 -0.75597,0 -0.50395,-0.50397 -1.00793,-1.00793 -1.51191,-1.51189 0,-0.25199 0.13978,-0.54629 0,-0.75596 -0.39534,-0.59301 -1.19316,-0.87443 -1.51188,-1.5119 -0.2254,-0.45075 0,-1.00793 0,-1.5119 0,-0.79603 0.15661,-3.153293 0,-3.779747 -0.19328,-0.77305 -0.56269,-1.4948 -0.75597,-2.26785 -0.12223,-0.48892 0,-1.00794 0,-1.51191 v -2.267847 -6.803577 -6.047608 -0.75596 c 0,-0.25198 0.17818,-0.577768 0,-0.755948 -0.17817,-0.17818 -0.57777,0.17818 -0.75594,0 -0.17819,-0.17818 0.17817,-0.57777 0,-0.75595 -0.17819,-0.17818 -0.57778,0.17818 -0.75597,0 -0.17817,-0.17818 0.11268,-0.53057 0,-0.75595 -0.4063,-0.81263 -0.86948,-1.62543 -1.51191,-2.26786 0.65085,-4.52474 -2.22695,-0.71506 -3.02379,-1.51191 -0.1782,-0.17818 0.13978,-0.54629 0,-0.75595 -0.39534,-0.59302 -1.00796,-1.00794 -1.51191,-1.5119 -0.50398,-0.50397 -1.11657,-0.91889 -1.51191,-1.511911 -0.13978,-0.20966 -0.25199,-0.75595 0,-0.75595 0.25199,0 0.11269,0.981331 0,0.75595 -0.35637,-0.71272 -0.56269,-1.494803 -0.75594,-2.267863 -0.0611,-0.24446 0,-0.503961 0,-0.755951 0,-1.77284 -0.1782,0.35636 0.75594,-1.5119 0.0879,-0.17592 0.008,-3.740674 0,-3.779764 -0.15626,-0.78137 -0.68382,-1.47429 -0.75594,-2.267859 -0.69628,-7.658876 -0.13494,-12.769829 -1.51191,-19.654744 -0.15629,-0.78137 -0.56269,-1.494807 -0.75597,-2.267857 -0.11451,-0.45808 0.155,-1.43441 0,-1.51191 -0.45074,-0.22538 -1.00793,0 -1.51191,0 -0.25196,0 -0.54628,0.13978 -0.75594,0 -0.59301,-0.39534 -1.00793,-1.00793 -1.5119,-1.511897 -0.25199,-0.25198 -0.43723,-0.59659 -0.75595,-0.75595 -0.22539,-0.11269 -0.50397,0 -0.75596,0 -0.50396,-0.25198 -1.04307,-0.4434 -1.51191,-0.75595 -1.00582,-0.67056 -1.55911,-2.31507 -2.26785,-3.023807 -0.64244,-0.64244 -1.5584,-0.94434 -2.26785,-1.51191 -0.55655,-0.44523 -0.96438,-1.05563 -1.51191,-1.51191 -7.63786,-6.364854 -0.035,-0.0234 -4.53573,-3.023797 -1.0483,-0.69888 -1.8969,-1.70441 -3.02379,-2.267857 -0.92927,-0.46463 -2.03816,-0.4274 -3.02381,-0.75595 -0.53454,-0.17818 -0.98875,-0.54669 -1.51191,-0.75595 -0.75594,-0.251986 -1.51191,-0.503966 -2.26785,-0.755946 -0.25199,0 -0.51689,0.0797 -0.75597,0 -6.04761,-2.01587 2.77183,0.755946 -2.26785,-2.26785 -1.78178,-1.06909 -4.31869,-0.35929 -6.04761,-1.51191 -0.75596,-0.50398 -0.81396,-1.68623 -1.5119,-2.26787 -0.86572,-0.72142 -2.04539,-0.9528 -3.02382,-1.5119 -0.78883,-0.45076 -1.51191,-1.00794 -2.26785,-1.5119 -0.75597,-0.50397 -1.5584,-0.94435 -2.26785,-1.51191 -0.55655,-0.44523 -0.87445,-1.19316 -1.51191,-1.5119 -0.92927,-0.46464 -2.03816,-0.42741 -3.02382,-0.75595 -0.53453,-0.17819 -1.00793,-0.50398 -1.5119,-0.75596 -1.00793,-0.50397 -1.9775,-1.09338 -3.02382,-1.5119 -0.46792,-0.18717 -1.01772,0.0988 -1.51188,0 -1.01881,-0.20376 -2.05918,-0.3701 -3.02382,-0.75595 -0.33089,-0.13235 -0.43722,-0.59659 -0.75597,-0.75596 -0.71271,-0.35636 -1.55511,-0.39959 -2.26785,-0.75595 -0.81261,-0.40631 -1.43277,-1.15401 -2.26785,-1.51191 -0.0206,-0.009 -5.97495,-1.4901 -6.04763,-1.5119 -15.67249,-4.70175 2.6479,1.02682 -6.80355,-3.02381 -0.95496,-0.40926 -2.01589,-0.50397 -3.02382,-0.75595 -1.00793,-0.25199 -1.99898,-0.58515 -3.02381,-0.75595 -0.4971,-0.0829 -1.01479,0.0828 -1.51191,0 -1.02481,-0.17081 -2.00501,-0.5522 -3.02379,-0.75596 -0.49419,-0.0988 -1.00796,0 -1.51191,0 h -2.26788 -6.80355 -10.58333 -3.02382 c -0.50397,0 -1.0338,-0.15937 -1.51191,0 -0.53453,0.17818 -0.96527,0.6193 -1.5119,0.75596 -0.96028,0.24007 -2.05441,-0.19388 -3.02382,0 -1.01878,0.20375 -1.99898,0.58515 -3.02379,0.75595 -0.49713,0.0828 -1.00796,0 -1.51191,0 -1.00793,0.25198 -2.00504,0.55219 -3.02382,0.75595 -0.24709,0.0494 -0.54628,-0.13977 -0.75594,0 -4.32633,2.88423 2.31564,0.28326 -4.53572,3.02381 -0.23395,0.0936 -0.5115,-0.0611 -0.75594,0 -1.2363,0.30907 -2.66256,0.84158 -3.77976,1.5119 -1.5484,-0.15614 -2.02393,1.60127 -3.02382,2.26786 -4.58944,3.05963 2.36699,-2.17614 -3.77976,1.51191 -0.61116,0.36669 -0.90077,1.14521 -1.51191,1.5119 -0.68328,0.40998 -1.52802,0.46001 -2.26785,0.75596 -0.71053,0.2842 -3.99057,1.85899 -4.53572,2.26785 -4.67529,3.50647 -0.45649,0.157 -1.51191,2.26786 -0.15936,0.31873 -0.59658,0.43721 -0.75594,0.75595 -0.11269,0.22538 0.20966,0.61618 0,0.75595 -0.66302,0.44201 -1.58459,0.34598 -2.26788,0.75595 -0.61113,0.3667 -1.00793,1.00794 -1.51188,1.51191 -0.25199,0.25198 -0.43722,0.59659 -0.75597,0.75596 -0.7127,0.35636 -1.60483,0.31394 -2.26785,0.75595 -0.18862,0.12574 0.27406,1.85676 0,2.26786 -1.84147,2.762196 -1.10664,-0.81055 -2.26785,1.511896 -0.0847,0.16943 0,2.844167 0,3.023807 0,0.25198 0.20966,0.61617 0,0.75595 -0.14806,0.0987 -3.43206,0.99033 -3.77978,1.5119 -0.27953,0.41933 0,1.007937 0,1.511897 v 4.535717 c 0,0.25199 0.20968,0.61618 0,0.75595 -1.04468,0.69647 -2.4026,0.2695 -3.02379,1.51191 -0.23381,0.46759 0.21447,4.213997 0,4.535707 -0.39534,0.593017 -1.11657,0.918887 -1.51191,1.511907 -0.12472,0.18706 0,2.635719 0,3.023799 l -5.29167,18.898834 5.29167,10.583309 v 6.04762 c 0,0.34045 -0.11504,2.037788 0,2.267858 0.15936,0.31873 0.59658,0.43721 0.75594,0.75595 0.2254,0.450761 -0.15936,1.033801 0,1.511901 0.1782,0.53454 0.57777,0.97737 0.75597,1.51191 0.1733,0.519967 -0.22302,1.821827 0,2.267847 0.15936,0.31874 0.64325,0.41788 0.75594,0.75596 0.15939,0.4781 -0.15936,1.03379 0,1.5119 0.11269,0.33807 0.59658,0.43721 0.75597,0.75595 0.11268,0.225387 -0.2254,0.643267 0,0.755947 0.45074,0.22539 1.06114,-0.22538 1.51188,0 0.2254,0.1127 -0.17817,0.57778 0,0.75596 0.1782,0.17818 0.64328,-0.22538 0.75597,0 0.22537,0.45076 -0.15939,1.0338 0,1.5119 0.11268,0.33808 0.59658,0.43722 0.75594,0.75596 0.11268,0.22538 -0.17817,0.57777 0,0.75595 0.1782,0.17818 0.57777,-0.17818 0.75597,0 0.35634,0.35636 -0.35637,1.155537 0,1.511897 0.17817,0.17818 0.64325,-0.22538 0.75594,0 0.22537,0.45076 0,1.00794 0,1.51191 0,0.25198 -0.17817,0.57777 0,0.75595 0.39843,0.39842 1.1135,0.35753 1.51191,0.75595 0.17817,0.17818 -0.17817,0.57777 0,0.75595 0.17817,0.17818 0.57777,-0.17818 0.75594,0 0.17819,0.17818 0,0.503967 0,0.755951 0,0.29883 -0.16143,3.456896 0,3.779756 1.57305,3.14608 -0.0522,-0.80814 1.51191,0.75594 0.17819,0.17818 -0.17818,0.57777 0,0.75595 0.17819,0.17818 0.50397,0 0.75596,0 0,0.25199 -0.17819,0.57778 0,0.75595 0.0243,0.0243 2.08452,0 2.26785,0 h 3.77976 0.75597 c 0.25196,0 0.53057,0.1127 0.75594,0 0.31874,-0.15936 0.43722,-0.59658 0.75594,-0.75595 0.2254,-0.11269 0.5306,0.11269 0.75597,0 0.31874,-0.15937 0.50395,-0.50397 0.75594,-0.75595 0.25199,-0.25197 0.50398,-0.50396 0.75597,-0.75594 2.50716,-2.507173 -0.35637,0.71271 0.75594,-1.51191 0.17505,-0.35006 2.57921,-2.579187 3.02381,-3.023797 0.44461,-0.4446 2.67375,-2.84877 3.02382,-3.0238 0.22537,-0.1127 0.53057,0.11268 0.75594,0 0.31875,-0.15937 0.43723,-0.59659 0.75594,-0.75596 0.2254,-0.11269 0.5306,0.11269 0.75597,0 0.31874,-0.15937 0.43722,-0.59658 0.75594,-0.75595 0.45077,-0.225377 1.06114,0.22538 1.51191,0 0.31874,-0.159367 0.43722,-0.596577 0.75597,-0.755947 0.21635,-0.10818 3.3759,0 3.77976,0 0.25198,0 0.57777,0.17818 0.75594,0 0.39843,-0.39843 0.28712,-1.19936 0.75596,-1.51191 0.41932,-0.27955 1.00793,0 1.51189,0 h 3.77978 13.60712 8.31549 3.02382 0.75594 c 0.25199,0 0.75596,-0.25198 0.75596,0 0,0.65971 -3.93163,-1.58783 0.75594,0.75596"
       id="path2449"
       inkscape:connector-curvature="0"
       sodipodi:nodetypes="ccssccscccccsscccccccscccscccsccsccccccccsccccccccccccccccccscccccccccccccccccssccccccccscsccsccsccccccsscccccccscscsccccccscccccccssccccccccccccsccccccscccscccsccccccccccccccccccccscccccccsccscsccccccsccsccccccscsccccccccccccccccscssssccsccssccscsccscscccccscccccccsscccccsssccccccsscccccccccccscsccsssscsccccsccccccccccccccccsccccccccscccccccccsscccccccccccccccccccscccccsccsccccccccscccscccccscsccccccscsccssccccssscsccsscccccccsccccsccccccsssscccccccccccsccccscccccccccsccscccccsccccccccscccsssccsssccccscsccscccsccccccccccsccsccccccsccccccccccsccccccccccccccccccccssccscccscccccccsccccscscccccccccsccssccccsccsccccccccccccccccccsccscscccccscsccccccccccccccsccsccccssc" />
  </g>
</svg>
